<svg xmlns="http://www.w3.org/2000/svg" viewBox="0 0 64 80" x="0px" y="0px"><path d="M33,23.816A2.966,2.966,0,0,1,32,24H30.819a11.942,11.942,0,0,1-2.9,6H33Z"/><path d="M16,33.6V35a3,3,0,0,0,6,0V33.6a11.59,11.59,0,0,1-6,0Z"/><path d="M29,22V16H9v6a10,10,0,0,0,20,0ZM14,20a1,1,0,0,0-1,1v1H11V21a3,3,0,0,1,6,0v1H15V21A1,1,0,0,0,14,20Zm9,6a4,4,0,0,1-8,0V25h2v1a2,2,0,0,0,4,0V25h2Zm1-6a1,1,0,0,0-1,1v1H21V21a3,3,0,0,1,6,0v1H25V21A1,1,0,0,0,24,20Z"/><path d="M30,41V56H58V41a3,3,0,0,0-3-3H33A3,3,0,0,0,30,41Zm17.293,3.707,1.414-1.414L52.414,47l-3.707,3.707-1.414-1.414L49.586,47Zm-3.242-1.023,1.9.632-2,6-1.9-.632Zm-4.758-.391,1.414,1.414L38.414,47l2.293,2.293-1.414,1.414L35.586,47Z"/><path d="M33,21a1,1,0,0,0-1-1H31v2h1A1,1,0,0,0,33,21Z"/><path d="M28,58v1a1,1,0,0,0,1,1H59a1,1,0,0,0,1-1V58Z"/><path d="M26,56h2V41a5,5,0,0,1,3-4.578A5,5,0,0,0,29,36H23.9a5,5,0,0,1-9.8,0H9a5.006,5.006,0,0,0-5,5V60h6V47h2V60H26.184A2.966,2.966,0,0,1,26,59Z"/><path d="M7.181,24H6a2.966,2.966,0,0,1-1-.184V30h5.081A11.942,11.942,0,0,1,7.181,24Z"/><path d="M6,22H7V20H6a1,1,0,0,0,0,2Z"/><path d="M7,18V15a1,1,0,0,1,1-1H30a1,1,0,0,1,1,1v3h1a2.966,2.966,0,0,1,1,.184V18A14,14,0,0,0,5,18v.184A2.966,2.966,0,0,1,6,18Z"/></svg>