<svg xmlns="http://www.w3.org/2000/svg" viewBox="0 0 100 125" x="0px" y="0px"><title>people_helloWoman</title><path d="M83.53,17.53A8.48,8.48,0,0,0,77.1,12c-1.23-.28-1.75,1.53-.52,1.82a6.52,6.52,0,0,1,5,4.2C82,19.18,83.93,18.69,83.53,17.53Z" fill-rule="evenodd"/><path d="M79.14,8.17c-1.27-.1-1.26,1.78,0,1.88,2.81.23,6.28,2.46,6.55,5.34.12,1.2,2.08,1.21,2,0C87.28,11.4,83.1,8.48,79.14,8.17Z" fill-rule="evenodd"/><path d="M63.31,19.59a8,8,0,0,0,.38,8.26c.66,1,2.38.13,1.72-.91a6.11,6.11,0,0,1-.4-6.4C65.58,19.46,63.89,18.51,63.31,19.59Z" fill-rule="evenodd"/><path d="M59.41,29.15c.81.94,2.21-.39,1.4-1.32-1.8-2.08-2.57-6-.62-8.22.82-.91-.55-2.27-1.37-1.34C56.11,21.32,56.87,26.22,59.41,29.15Z" fill-rule="evenodd"/><path d="M47.83,29.25C45.82,23.11,38.94,19.06,30,21A14.16,14.16,0,0,0,18.57,33.78c-.31,4.56-2.94,18.09-8,23,3.74,1.51,14.3,2,19.26.93a14.76,14.76,0,0,0,8.18.72c3.25-.57,4.2-1,7.48-4.14A58.34,58.34,0,0,0,57.11,51.1C55.41,48.93,50,35.86,47.83,29.25Z" fill-rule="evenodd"/><path d="M83.84,36.11c-.17-5.74-2.59-22.41-12.44-17.26-5,2.59,2.31,7.85,1.35,18.65-.38,4.22-2,9.27-6.1,15.35-3,4.48-10.4,7-17.15,8.11a11,11,0,0,0-4.23-1.15A16,16,0,0,1,36,62.15a16.07,16.07,0,0,1-9.28-2.34c-3.07.07-7.15,2.34-9.41,4.68-5.79,6-6,18.13-6,26.51H55.19c2.06-6.62,1.35-13,.06-18.62,10.18-2.8,15.84-5.26,20.23-11A41.51,41.51,0,0,0,83.84,36.11Z" fill-rule="evenodd"/></svg>